<?xml version="1.0" encoding="UTF-8" standalone="no"?><!DOCTYPE svg PUBLIC "-//W3C//DTD SVG 1.1//EN" "http://www.w3.org/Graphics/SVG/1.1/DTD/svg11.dtd"><svg width="100%" height="100%" viewBox="0 0 505 306" version="1.1" xmlns="http://www.w3.org/2000/svg" xmlns:xlink="http://www.w3.org/1999/xlink" xml:space="preserve" xmlns:serif="http://www.serif.com/" style="fill-rule:evenodd;clip-rule:evenodd;stroke-linejoin:round;stroke-miterlimit:2;"><g><g><g><path d="M173.518,55.99c17.15,-0 30.98,5.254 41.488,15.763c10.509,10.508 15.763,25.178 15.763,44.01l0,46.659c0,9.364 -3.72,18.345 -10.341,24.967c-6.622,6.621 -15.603,10.341 -24.967,10.341l-0.001,0l0,-77.175c0,-10.929 -2.774,-19.294 -8.323,-25.095c-5.548,-5.8 -13.114,-8.701 -22.698,-8.701c-9.584,0 -17.192,2.901 -22.825,8.701c-5.632,5.801 -8.449,14.166 -8.449,25.095l0,41.867c0,19.5 -15.808,35.308 -35.308,35.308l-0.001,0l0,-77.175c0,-10.929 -2.774,-19.294 -8.323,-25.095c-5.548,-5.8 -13.114,-8.701 -22.698,-8.701c-9.752,0 -17.444,2.901 -23.077,8.701c-5.633,5.801 -8.449,14.166 -8.449,25.095l-0,41.867c-0,19.5 -15.808,35.308 -35.308,35.308l-0.001,0l0,-104.414c-0,-9.365 3.72,-18.345 10.341,-24.967c6.622,-6.621 15.603,-10.341 24.967,-10.341l0.001,-0l-0,16.897c4.54,-5.884 10.382,-10.508 17.528,-13.871c7.146,-3.363 15.007,-5.044 23.582,-5.044c10.929,-0 20.681,2.312 29.256,6.936c8.575,4.623 15.216,11.223 19.924,19.798c4.54,-8.071 11.139,-14.544 19.798,-19.42c8.659,-4.876 18.033,-7.314 28.121,-7.314Z" style="fill:#f2f2f7;fill-rule:nonzero;"/><path d="M282.219,41.362c-6.221,-0 -11.391,-1.976 -15.51,-5.927c-4.12,-3.951 -6.179,-8.869 -6.179,-14.754c-0,-5.885 2.059,-10.803 6.179,-14.754c4.119,-3.951 9.289,-5.927 15.51,-5.927c6.222,-0 11.392,1.976 15.511,5.927c4.12,3.951 6.179,8.869 6.179,14.754c0,5.885 -2.059,10.803 -6.179,14.754c-4.119,3.951 -9.289,5.927 -15.511,5.927Zm17.403,16.646l-0,104.414c-0,9.364 -3.72,18.345 -10.342,24.967c-6.621,6.621 -15.602,10.341 -24.966,10.341l-0.001,0l-0,-104.414c-0,-9.365 3.72,-18.345 10.341,-24.967c6.622,-6.621 15.602,-10.341 24.967,-10.341l0.001,-0Z" style="fill:#f2f2f7;fill-rule:nonzero;"/><path d="M504.666,55.99l-107.188,-0l-0,30.772l76.416,0c8.161,0 15.988,-3.242 21.759,-9.013c5.771,-5.771 9.013,-13.598 9.013,-21.759c-0,-0 -0,-0 -0,-0Z" style="fill:#f2f2f7;"/><path d="M396.469,200c-13.451,-0 -25.557,-2.984 -36.318,-8.953c-10.76,-5.969 -19.209,-14.418 -25.346,-25.347c-6.137,-10.929 -9.206,-23.539 -9.206,-37.831c-0,-14.292 3.153,-26.902 9.458,-37.831c6.305,-10.929 14.922,-19.378 25.851,-25.347c10.929,-5.969 23.119,-8.953 36.57,-8.953c13.451,-0 25.641,2.984 36.57,8.953c10.929,5.969 19.546,14.418 25.851,25.347c6.305,10.929 9.458,23.539 9.458,37.831c-0,14.292 -3.237,26.902 -9.71,37.831c-6.473,10.929 -15.217,19.378 -26.23,25.347c-11.013,5.969 -23.329,8.953 -36.948,8.953Zm0,-30.769c6.389,-0 12.4,-1.556 18.033,-4.666c5.633,-3.111 10.13,-7.776 13.493,-13.998c3.363,-6.221 5.044,-13.787 5.044,-22.698c0,-13.283 -3.489,-23.497 -10.466,-30.643c-6.978,-7.146 -15.511,-10.719 -25.599,-10.719c-10.089,-0 -18.538,3.573 -25.347,10.719c-6.81,7.146 -10.215,17.36 -10.215,30.643c0,13.283 3.321,23.497 9.963,30.643c6.641,7.146 15.006,10.719 25.094,10.719Z" style="fill:#f2f2f7;fill-rule:nonzero;"/></g></g><g><path d="M0,262.6c0,-8.16 1.942,-15.48 5.827,-21.96c3.884,-6.48 9.159,-11.54 15.824,-15.18c6.664,-3.64 13.963,-5.46 21.895,-5.46c9.078,-0 17.153,2.18 24.227,6.54c1.525,0.94 2.96,1.965 4.305,3.075c2.826,2.353 3.875,6.225 2.623,9.684c-1.252,3.458 -4.535,5.762 -8.213,5.762c-0.083,0.019 -0.126,0.019 -0.126,0.019c-2.208,-4.4 -5.274,-7.68 -9.2,-9.84c-3.925,-2.16 -8.464,-3.24 -13.616,-3.24c-5.642,-0 -10.672,1.24 -15.088,3.72c-4.416,2.48 -7.871,6.04 -10.365,10.68c-2.494,4.64 -3.741,10.04 -3.741,16.2c-0,6.16 1.247,11.56 3.741,16.2c2.494,4.64 5.949,8.22 10.365,10.74c4.416,2.52 9.446,3.78 15.088,3.78c5.152,0 9.691,-1.08 13.616,-3.24c3.926,-2.16 6.992,-5.44 9.2,-9.84l0.126,0c3.687,-0 6.977,2.314 8.224,5.783c1.246,3.47 0.181,7.349 -2.662,9.695c-1.346,1.074 -2.767,2.08 -4.277,3.002c-7.074,4.32 -15.149,6.48 -24.227,6.48c-8.014,0 -15.333,-1.82 -21.957,-5.46c-6.624,-3.64 -11.878,-8.7 -15.762,-15.18c-3.885,-6.48 -5.827,-13.8 -5.827,-21.96Z" style="fill:#f2f2f7;fill-rule:nonzero;"/><path d="M95.392,271.12c0,-6.64 1.411,-12.52 4.232,-17.64c2.822,-5.12 6.665,-9.1 11.531,-11.94c4.866,-2.84 10.243,-4.26 16.131,-4.26c5.315,-0 9.956,1.02 13.922,3.06c3.966,2.04 7.135,4.58 9.507,7.62c-0,-5.302 4.298,-9.6 9.6,-9.6c2.499,-0 4.506,-0 4.506,-0l0,52.32c0,7.622 -6.178,13.8 -13.8,13.8c-0.198,-0 -0.306,-0 -0.306,-0l-0,-9.84c-2.372,3.12 -5.602,5.72 -9.691,7.8c-4.089,2.08 -8.75,3.12 -13.984,3.12c-5.806,-0 -11.122,-1.46 -15.946,-4.38c-4.825,-2.92 -8.648,-7 -11.47,-12.24c-2.821,-5.24 -4.232,-11.18 -4.232,-17.82Zm55.323,0.24c-0,-4.56 -0.961,-8.52 -2.883,-11.88c-1.922,-3.36 -4.436,-5.92 -7.544,-7.68c-3.107,-1.76 -6.46,-2.64 -10.058,-2.64c-3.599,-0 -6.952,0.86 -10.059,2.58c-3.108,1.72 -5.622,4.24 -7.544,7.56c-1.922,3.32 -2.883,7.26 -2.883,11.82c0,4.56 0.961,8.56 2.883,12c1.922,3.44 4.457,6.06 7.605,7.86c3.149,1.8 6.481,2.7 9.998,2.7c3.598,-0 6.951,-0.88 10.058,-2.64c3.108,-1.76 5.622,-4.34 7.544,-7.74c1.922,-3.4 2.883,-7.38 2.883,-11.94Z" style="fill:#f2f2f7;fill-rule:nonzero;"/><path d="M217.894,237.28c5.316,-0 10.079,1.08 14.291,3.24c4.211,2.16 7.503,5.36 9.874,9.6c2.372,4.24 3.557,9.36 3.557,15.36l0,25.44c0,3.596 -1.428,7.045 -3.971,9.588c-2.543,2.543 -5.992,3.972 -9.589,3.972l-0.301,-0l0,-36.96c0,-5.92 -1.513,-10.46 -4.538,-13.62c-3.026,-3.16 -7.156,-4.74 -12.39,-4.74c-5.233,-0 -9.384,1.58 -12.45,4.74c-3.067,3.16 -4.6,7.7 -4.6,13.62l-0,23.28c-0,3.628 -1.441,7.108 -4.007,9.673c-2.565,2.566 -6.045,4.007 -9.673,4.007l-0.304,-0l-0,-52.442c-0,-3.628 1.441,-7.107 4.006,-9.672c2.565,-2.565 6.044,-4.006 9.672,-4.006c0.197,-0 0.306,-0 0.306,-0l-0,7.56c2.29,-2.72 5.213,-4.84 8.77,-6.36c3.558,-1.52 7.34,-2.28 11.347,-2.28Z" style="fill:#f2f2f7;fill-rule:nonzero;"/><path d="M290.103,292.24c-0,0 8.643,-24.335 14.311,-40.297c2.892,-8.143 10.598,-13.583 19.239,-13.583c0.275,0 0.428,0 0.428,-0c0,0 -12.28,31.519 -19.882,51.034c-3.544,9.096 -12.306,15.086 -22.069,15.086c-0.315,-0 -0.491,-0 -0.491,-0c-0,-0 -12.791,-32.989 -20.303,-52.363c-1.206,-3.109 -0.8,-6.611 1.084,-9.362c1.883,-2.751 5.002,-4.395 8.336,-4.395l0.211,-0l19.136,53.88Z" style="fill:#f2f2f7;fill-rule:nonzero;"/><path d="M330.541,271.12c-0,-6.64 1.41,-12.52 4.232,-17.64c2.821,-5.12 6.665,-9.1 11.53,-11.94c4.866,-2.84 10.243,-4.26 16.131,-4.26c5.315,-0 9.956,1.02 13.922,3.06c3.967,2.04 7.135,4.58 9.507,7.62l0,-0.002c0,-2.546 1.011,-4.987 2.811,-6.787c1.8,-1.8 4.241,-2.811 6.787,-2.811c2.501,0 4.509,0 4.509,-0l-0,52.32c-0,7.622 -6.179,13.8 -13.8,13.8c-0.198,-0 -0.307,-0 -0.307,-0l0,-9.84c-2.372,3.12 -5.602,5.72 -9.691,7.8c-4.088,2.08 -8.75,3.12 -13.983,3.12c-5.807,-0 -11.122,-1.46 -15.947,-4.38c-4.825,-2.92 -8.648,-7 -11.469,-12.24c-2.822,-5.24 -4.232,-11.18 -4.232,-17.82Zm55.322,0.24c0,-4.56 -0.961,-8.52 -2.883,-11.88c-1.921,-3.36 -4.436,-5.92 -7.544,-7.68c-3.107,-1.76 -6.46,-2.64 -10.058,-2.64c-3.598,-0 -6.951,0.86 -10.059,2.58c-3.107,1.72 -5.622,4.24 -7.544,7.56c-1.921,3.32 -2.882,7.26 -2.882,11.82c-0,4.56 0.961,8.56 2.882,12c1.922,3.44 4.457,6.06 7.606,7.86c3.148,1.8 6.48,2.7 9.997,2.7c3.598,-0 6.951,-0.88 10.058,-2.64c3.108,-1.76 5.623,-4.34 7.544,-7.74c1.922,-3.4 2.883,-7.38 2.883,-11.94Z" style="fill:#f2f2f7;fill-rule:nonzero;"/><path d="M443.474,305.56c-5.315,-0 -10.079,-0.94 -14.29,-2.82c-4.212,-1.88 -7.544,-4.44 -9.997,-7.68c-0.002,-0.002 -0.003,-0.003 -0.004,-0.005c-1.551,-2.048 -1.808,-4.799 -0.663,-7.099c1.144,-2.301 3.492,-3.756 6.061,-3.756c2.806,-0 5.155,-0 5.155,-0c0.245,2.8 1.615,5.14 4.109,7.02c2.494,1.88 5.622,2.82 9.384,2.82c3.925,-0 6.972,-0.74 9.139,-2.22c2.167,-1.48 3.25,-3.38 3.25,-5.7c0,-2.48 -1.206,-4.32 -3.618,-5.52c-2.413,-1.2 -6.236,-2.52 -11.47,-3.96c-5.07,-1.36 -9.2,-2.68 -12.389,-3.96c-3.189,-1.28 -5.949,-3.24 -8.28,-5.88c-2.33,-2.64 -3.496,-6.12 -3.496,-10.44c0,-3.52 1.063,-6.74 3.19,-9.66c2.126,-2.92 5.172,-5.22 9.138,-6.9c3.966,-1.68 8.525,-2.52 13.677,-2.52c7.687,-0 13.882,1.9 18.584,5.7c0.002,0.001 0.004,0.003 0.006,0.004c2.879,2.329 3.978,6.22 2.743,9.711c-1.235,3.491 -4.536,5.825 -8.239,5.825c-0.596,-0 -0.95,-0 -0.95,-0c-0.245,-2.96 -1.472,-5.32 -3.68,-7.08c-2.208,-1.76 -5.193,-2.64 -8.954,-2.64c-3.68,-0 -6.502,0.68 -8.464,2.04c-1.963,1.36 -2.944,3.16 -2.944,5.4c-0,1.76 0.654,3.24 1.962,4.44c1.309,1.2 2.904,2.14 4.784,2.82c1.881,0.68 4.662,1.54 8.342,2.58c4.906,1.28 8.934,2.58 12.082,3.9c3.149,1.32 5.868,3.26 8.158,5.82c2.289,2.56 3.475,5.96 3.557,10.2c-0,3.76 -1.063,7.12 -3.189,10.08c-2.127,2.96 -5.132,5.28 -9.016,6.96c-3.885,1.68 -8.444,2.52 -13.678,2.52Z" style="fill:#f2f2f7;fill-rule:nonzero;"/></g></g></svg>