<?xml version="1.0" standalone="no"?>
<!DOCTYPE svg PUBLIC "-//W3C//DTD SVG 20010904//EN"
 "http://www.w3.org/TR/2001/REC-SVG-20010904/DTD/svg10.dtd">
<svg version="1.0" xmlns="http://www.w3.org/2000/svg"
 width="512.000000pt" height="512.000000pt" viewBox="0 0 512.000000 512.000000"
 preserveAspectRatio="xMidYMid meet">
<metadata>
Created by potrace 1.14, written by Peter Selinger 2001-2017
</metadata>
<g transform="translate(0.000000,512.000000) scale(0.100000,-0.100000)"
fill="#000000" stroke="none">
<path d="M0 2560 l0 -2560 2560 0 2560 0 0 2560 0 2560 -2560 0 -2560 0 0
-2560z m3040 808 c52 -27 78 -60 90 -114 17 -72 -23 -154 -92 -190 -44 -23
-130 -20 -176 6 -75 42 -107 127 -78 204 40 104 153 146 256 94z m-1627 -468
c81 -25 158 -78 204 -140 l37 -50 25 32 c45 59 95 99 166 133 213 104 485 38
605 -147 66 -101 75 -160 75 -493 l0 -290 -30 -54 c-49 -88 -134 -141 -226
-141 l-38 0 -3 373 c-3 364 -3 373 -26 414 -46 86 -113 126 -217 127 -89 1
-152 -22 -199 -74 -58 -64 -66 -111 -66 -372 0 -131 -5 -248 -11 -272 -25
-101 -127 -185 -235 -194 l-54 -4 0 355 c0 301 -2 362 -16 405 -32 98 -118
155 -234 156 -111 1 -187 -41 -233 -128 -20 -38 -22 -59 -27 -311 l-5 -270
-29 -59 c-42 -87 -130 -144 -224 -145 l-43 -1 3 478 c3 459 4 479 24 522 41
88 124 147 220 157 l54 6 0 -68 0 -68 46 43 c111 102 286 133 457 80z m3387 4
c0 -78 -58 -167 -134 -206 -32 -17 -64 -23 -143 -26 -57 -2 -103 -6 -103 -7 0
-2 14 -32 31 -69 32 -68 58 -189 58 -266 0 -284 -193 -528 -464 -585 -196 -41
-405 9 -541 128 -200 176 -251 535 -109 772 55 92 136 168 229 215 129 65 159
68 699 69 l477 1 0 -26z m-1700 -462 c0 -515 -1 -522 -61 -595 -45 -55 -108
-88 -179 -94 l-60 -6 0 440 c0 464 5 530 45 592 50 78 136 130 218 131 l37 0
0 -468z"/>
<path d="M3817 2656 c-92 -33 -163 -109 -189 -201 -17 -63 -14 -202 7 -268 21
-68 79 -139 139 -169 24 -13 68 -23 108 -26 127 -9 233 53 287 168 23 49 26
67 26 170 0 100 -3 122 -24 168 -60 132 -222 205 -354 158z"/>
</g>
</svg>
